<svg width="25" height="19" viewBox="0 0 25 19" fill="none" xmlns="http://www.w3.org/2000/svg">
<path d="M0.800293 12.7455C0.800293 11.4643 1.18686 10.3378 1.97102 9.34376C2.75519 8.34975 3.76026 7.7202 4.99726 7.44409C5.25128 6.30649 5.77038 5.31247 6.54351 4.46203C7.31663 3.6116 8.25542 3.00414 9.3378 2.63967C10.0226 2.40773 10.7294 2.28624 11.4694 2.28624C12.364 2.28624 13.2366 2.46295 14.0649 2.81638C14.3742 2.29728 14.7386 1.84445 15.1583 1.46894C15.578 1.09342 16.0088 0.795214 16.4505 0.59641C16.8923 0.397607 17.3341 0.242982 17.7538 0.14358C18.1735 0.0441781 18.5932 0 18.9908 0C19.4105 0 19.8633 0.055223 20.3493 0.176714L21.255 0.45283C21.4096 0.519098 21.4538 0.59641 21.4096 0.695812L21.255 1.35849C21.1777 1.70087 21.1445 2.02117 21.1445 2.30833C21.1445 2.65071 21.1997 3.00414 21.3102 3.35757C21.4206 3.711 21.5753 4.05338 21.7962 4.39577C22.006 4.73815 22.3042 5.03635 22.6797 5.31247C23.0552 5.58859 23.4749 5.79843 23.9499 5.94201L24.6346 6.185C24.7451 6.21813 24.8003 6.27335 24.8003 6.36171C24.8003 6.3838 24.7892 6.40589 24.7782 6.43902L24.5794 7.17901C24.2812 8.37184 23.7179 9.31063 22.9227 10.0175C23.3645 10.7906 23.6075 11.619 23.6406 12.4915C23.6516 12.5467 23.6516 12.624 23.6516 12.7455C23.6516 13.7285 23.4087 14.6452 22.9117 15.4846C22.4257 16.324 21.752 16.9867 20.9236 17.4726C20.0842 17.9586 19.1675 18.2126 18.1846 18.2126H6.2453C5.26233 18.2126 4.34562 17.9696 3.50623 17.4726C2.66684 16.9756 2.0152 16.3129 1.52924 15.4846C1.04328 14.6562 0.800293 13.7395 0.800293 12.7455ZM2.68893 12.7455C2.68893 13.7285 3.04235 14.5789 3.74921 15.2968C4.45607 16.0147 5.28442 16.3792 6.2453 16.3792H18.1846C19.1675 16.3792 20.0069 16.0258 20.7027 15.3079C21.3985 14.59 21.752 13.7395 21.752 12.7455C21.752 11.7736 21.3985 10.9452 20.6917 10.2494C19.9848 9.55361 19.1454 9.20018 18.1735 9.20018H16.2076L16.0971 8.37184C15.9867 7.25633 15.5228 6.29544 14.7055 5.51127C13.8882 4.72711 12.9163 4.28532 11.8008 4.18592C11.7676 4.18592 11.7124 4.18592 11.6351 4.17487C11.5578 4.16383 11.5136 4.16383 11.4694 4.16383C10.9061 4.16383 10.3429 4.27427 9.76854 4.48412V4.46203C8.96228 4.77128 8.27751 5.27934 7.73633 5.97515C7.18409 6.67096 6.85276 7.46617 6.74231 8.37184L6.665 9.16705L5.91396 9.20018C4.98621 9.31063 4.21309 9.69719 3.59459 10.3709C2.97609 11.0446 2.68893 11.8288 2.68893 12.7455ZM15.6664 3.78831C16.8371 4.79337 17.5661 5.9641 17.8422 7.30051H18.1956C19.5651 7.30051 20.7359 7.73125 21.6967 8.60377C22.0612 8.26139 22.3373 7.86378 22.5361 7.422C21.5311 6.94708 20.7359 6.21813 20.1505 5.2462C19.5762 4.27427 19.278 3.24712 19.278 2.17579V1.91072C19.2228 1.89968 19.1344 1.89968 19.0129 1.89968C18.3723 1.88863 17.7428 2.04326 17.1353 2.38564C16.5279 2.71698 16.0309 3.18086 15.6664 3.78831Z" fill="#2E2929"/>
</svg>
