<svg width="24" height="25" viewBox="0 0 24 25" fill="none" xmlns="http://www.w3.org/2000/svg">
<path d="M0 12C0 11.7288 0.0903955 11.4915 0.282486 11.2994C0.474576 11.1186 0.711864 11.0282 0.960452 11.0282H3.26554C3.52542 11.0282 3.74011 11.1186 3.9209 11.3107C4.0904 11.5028 4.18079 11.7288 4.18079 12C4.18079 12.2712 4.10169 12.4972 3.9322 12.6893C3.76271 12.8814 3.53672 12.9717 3.27684 12.9717H0.971751C0.711864 12.9717 0.485876 12.8814 0.293786 12.6893C0.101695 12.4972 0 12.2712 0 12ZM3.23164 19.8305C3.23164 19.5706 3.32203 19.3446 3.49153 19.1412L5.15254 17.5254C5.32203 17.3446 5.54802 17.2655 5.81921 17.2655C6.0904 17.2655 6.31638 17.3559 6.49717 17.5254C6.67797 17.6949 6.76836 17.9096 6.76836 18.1695C6.76836 18.4407 6.67797 18.6893 6.49717 18.8927L4.89265 20.4972C4.42938 20.8588 3.9661 20.8588 3.50282 20.4972C3.32203 20.3164 3.23164 20.0904 3.23164 19.8305ZM3.23164 4.19209C3.23164 3.9322 3.32203 3.70621 3.49153 3.50282C3.71751 3.31073 3.9548 3.22034 4.21469 3.22034C4.46328 3.22034 4.68926 3.31073 4.88136 3.49153L6.49717 5.15254C6.67797 5.32203 6.76836 5.54802 6.76836 5.81921C6.76836 6.09039 6.67797 6.31638 6.49717 6.49717C6.31638 6.67797 6.0904 6.76836 5.81921 6.76836C5.54802 6.76836 5.32203 6.67797 5.15254 6.49717L3.50282 4.88136C3.32203 4.70056 3.23164 4.46328 3.23164 4.19209ZM6.11299 12C6.11299 10.9492 6.37288 9.9661 6.90395 9.06215C7.43503 8.15819 8.14689 7.43503 9.06215 6.90395C9.9774 6.37288 10.9492 6.11299 12 6.11299C12.791 6.11299 13.548 6.27119 14.2825 6.58757C15.0056 6.90395 15.6384 7.32203 16.1582 7.85311C16.6893 8.38418 17.1073 9.00565 17.4124 9.72881C17.7175 10.452 17.8757 11.2203 17.8757 12.0113C17.8757 13.0734 17.6158 14.0565 17.0847 14.9604C16.5537 15.8644 15.8418 16.5763 14.9379 17.1073C14.0339 17.6384 13.0508 17.8983 11.9887 17.8983C10.9266 17.8983 9.9435 17.6384 9.03955 17.1073C8.13559 16.5763 7.42373 15.8644 6.89265 14.9604C6.38418 14.0452 6.11299 13.0621 6.11299 12ZM8.0339 12C8.0339 13.1073 8.41808 14.0452 9.19774 14.8249C9.9661 15.6045 10.904 16 12.0113 16C13.1186 16 14.0565 15.6045 14.8362 14.8249C15.6158 14.0452 16.0113 13.1073 16.0113 12C16.0113 10.9153 15.6158 9.9887 14.8362 9.20904C14.0565 8.44068 13.1186 8.0565 12.0113 8.0565C10.9153 8.0565 9.9774 8.44068 9.20904 9.20904C8.41808 9.9887 8.0339 10.9153 8.0339 12ZM11.0395 20.791C11.0395 20.5198 11.1299 20.2938 11.322 20.113C11.5141 19.9322 11.7401 19.8418 12 19.8418C12.2712 19.8418 12.5085 19.9322 12.6893 20.113C12.8701 20.2938 12.9605 20.5198 12.9605 20.791V23.0395C12.9605 23.3107 12.8701 23.548 12.678 23.7401C12.4859 23.9322 12.2599 24.0226 12 24.0226C11.7401 24.0226 11.5028 23.9322 11.322 23.7401C11.1299 23.548 11.0395 23.3107 11.0395 23.0395V20.791ZM11.0395 3.27684V0.971751C11.0395 0.711864 11.1299 0.485876 11.322 0.293786C11.5141 0.101695 11.7401 0 12.0113 0C12.2825 0 12.4972 0.0903955 12.6893 0.282486C12.8814 0.474576 12.9718 0.700565 12.9718 0.960452V3.27684C12.9718 3.53672 12.8814 3.75141 12.6893 3.9322C12.4972 4.11299 12.2712 4.19209 12.0113 4.19209C11.7514 4.19209 11.5141 4.10169 11.3333 3.9322C11.1525 3.76271 11.0395 3.53672 11.0395 3.27684ZM17.2768 18.1695C17.2768 17.9096 17.3672 17.6949 17.5367 17.5367C17.7062 17.3559 17.9209 17.2768 18.1695 17.2768C18.4407 17.2768 18.6667 17.3672 18.8475 17.5367L20.4972 19.1525C20.678 19.3446 20.7684 19.5819 20.7684 19.8418C20.7684 20.1017 20.678 20.3277 20.4972 20.5085C20.0452 20.8588 19.5932 20.8588 19.1412 20.5085L17.5367 18.904C17.3672 18.7006 17.2768 18.4633 17.2768 18.1695ZM17.2768 5.83051C17.2768 5.54802 17.3672 5.32203 17.5367 5.16384L19.1412 3.50282C19.3333 3.32203 19.5593 3.23164 19.8079 3.23164C20.0791 3.23164 20.3051 3.32203 20.4859 3.51412C20.678 3.70621 20.7684 3.9322 20.7684 4.19209C20.7684 4.47458 20.678 4.71186 20.4972 4.89265L18.8475 6.50847C18.6441 6.68927 18.4181 6.77966 18.1695 6.77966C17.9096 6.77966 17.7062 6.68927 17.5367 6.50847C17.3672 6.32768 17.2768 6.10169 17.2768 5.83051ZM19.8305 12C19.8305 11.7288 19.9209 11.5028 20.1017 11.2994C20.2825 11.1186 20.4972 11.0282 20.7458 11.0282H23.0282C23.2881 11.0282 23.5141 11.1299 23.7062 11.322C23.8983 11.5141 24 11.7401 24 12C24 12.2599 23.8983 12.4859 23.7062 12.678C23.5141 12.8701 23.2881 12.9605 23.0282 12.9605H20.7458C20.4859 12.9605 20.2599 12.8701 20.0904 12.678C19.9209 12.4859 19.8305 12.2712 19.8305 12Z" fill="#2E2929"/>
</svg>
