<svg width="24" height="19" viewBox="0 0 24 19" fill="none" xmlns="http://www.w3.org/2000/svg">
<path d="M0 12C0 11.7551 0.0979591 11.5298 0.293878 11.3241C0.509388 11.138 0.74449 11.04 0.979592 11.04H3.26204C3.52653 11.04 3.74204 11.138 3.91837 11.3241C4.09469 11.5102 4.18286 11.7453 4.18286 12C4.18286 12.2841 4.09469 12.5192 3.91837 12.7053C3.74204 12.8914 3.51673 12.9894 3.26204 12.9894H0.979592C0.715102 12.9894 0.489796 12.8914 0.293878 12.6955C0.0979591 12.4898 0 12.2547 0 12ZM3.26204 4.18286C3.26204 3.91837 3.3502 3.69306 3.51673 3.51673C3.74204 3.32082 3.96735 3.22286 4.21225 3.22286C4.46694 3.22286 4.69224 3.32082 4.87837 3.50694L6.4849 5.12327C6.67102 5.33878 6.75918 5.56408 6.75918 5.79918C6.75918 6.07347 6.67102 6.30857 6.49469 6.4849C6.31837 6.66122 6.10286 6.75918 5.84816 6.75918C5.61306 6.75918 5.37796 6.66123 5.16245 6.4751L3.51673 4.89796C3.3502 4.69225 3.26204 4.44735 3.26204 4.18286ZM5.22122 17.4073C5.22122 17.1331 5.31918 16.9078 5.50531 16.7412C5.68163 16.5747 5.89714 16.4865 6.17143 16.4865H8.74776L11.7943 13.6261C11.8922 13.5478 12 13.5478 12.1273 13.6261L15.2229 16.4865H17.9363C18.2008 16.4865 18.4261 16.5747 18.6122 16.7608C18.7984 16.9371 18.8963 17.1624 18.8963 17.4171C18.8963 17.6816 18.7984 17.9069 18.6122 18.0931C18.4261 18.2792 18.2008 18.3771 17.9363 18.3771H14.6253C14.5273 18.3771 14.4294 18.3576 14.3412 18.3086L11.9804 16.0849L9.63918 18.3086C9.56082 18.3576 9.47265 18.3771 9.3649 18.3771H6.17143C5.90694 18.3771 5.68163 18.2792 5.49551 18.0931C5.30939 17.8971 5.22122 17.6718 5.22122 17.4073ZM6.12245 12C6.12245 12.9502 6.32816 13.8122 6.7298 14.5861C6.74939 14.7037 6.83755 14.7625 6.97469 14.7625H8.81633C8.8849 14.7625 8.93388 14.7331 8.96327 14.6841C8.99265 14.6253 8.98286 14.5665 8.94367 14.498C8.31673 13.7437 8.00327 12.911 8.00327 12C8.00327 10.9029 8.3951 9.96245 9.17878 9.18857C9.96245 8.41469 10.9029 8.03265 12.0098 8.03265C13.1069 8.03265 14.0376 8.41469 14.8114 9.18857C15.5853 9.96245 15.9771 10.8931 15.9771 12C15.9771 12.9208 15.6637 13.7535 15.0465 14.498C15.0073 14.5665 14.9976 14.6253 15.0171 14.6841C15.0367 14.7429 15.0857 14.7625 15.1641 14.7625H17.0253C17.1527 14.7625 17.231 14.7037 17.2506 14.5861C17.6816 13.8318 17.8776 12.9698 17.8776 12C17.8776 11.2065 17.7208 10.4425 17.4073 9.72735C17.0939 9.00245 16.6727 8.38531 16.1535 7.85633C15.6343 7.33714 15.0073 6.91592 14.2824 6.60245C13.5576 6.28898 12.8033 6.14204 12.0098 6.14204C11.2163 6.14204 10.4522 6.29878 9.72735 6.60245C9.00245 6.91592 8.37551 7.32735 7.84653 7.85633C7.31755 8.37551 6.89633 9.00245 6.58286 9.72735C6.27918 10.4425 6.12245 11.1967 6.12245 12ZM11.0498 3.22286V0.969796C11.0498 0.685714 11.138 0.460408 11.3241 0.274286C11.5102 0.0881635 11.7453 0 12.0196 0C12.2939 0 12.5192 0.0881635 12.7053 0.274286C12.8914 0.460408 12.9796 0.705306 12.9796 0.979592V3.23265C12.9796 3.51673 12.8914 3.74204 12.7053 3.92816C12.529 4.10449 12.2939 4.20245 12.0196 4.20245C11.7355 4.20245 11.5102 4.11429 11.3241 3.92816C11.138 3.74204 11.0498 3.50694 11.0498 3.22286ZM17.2702 5.80898C17.2702 5.56408 17.3584 5.33878 17.5347 5.13306L19.1216 3.51673C19.3078 3.33061 19.5429 3.23265 19.8073 3.23265C20.0718 3.23265 20.3069 3.33061 20.4833 3.51673C20.6694 3.70286 20.7576 3.92816 20.7576 4.19265C20.7576 4.47673 20.6694 4.71184 20.5029 4.90776L18.8571 6.4849C18.6514 6.67102 18.4163 6.76898 18.1714 6.76898C17.9069 6.76898 17.6914 6.68082 17.5249 6.49469C17.3584 6.30857 17.2702 6.08327 17.2702 5.80898ZM19.8269 12C19.8269 11.7355 19.9151 11.5102 20.0914 11.3241C20.2678 11.138 20.4833 11.04 20.738 11.04H23.04C23.3045 11.04 23.5298 11.138 23.7159 11.3241C23.902 11.5102 24 11.7453 24 12C24 12.2743 23.902 12.4996 23.7159 12.6955C23.5298 12.8914 23.3045 12.9894 23.04 12.9894H20.738C20.4735 12.9894 20.258 12.8914 20.0816 12.7053C19.9151 12.5094 19.8269 12.2743 19.8269 12Z" fill="#2E2929"/>
</svg>
