<svg width="24" height="22" viewBox="0 0 24 22" fill="none" xmlns="http://www.w3.org/2000/svg">
<path d="M0 11.9951C0 11.7179 0.098969 11.5002 0.296907 11.3221C0.465155 11.1439 0.692783 11.0647 0.969897 11.0647H3.25608C3.5233 11.0647 3.74103 11.1538 3.91918 11.332C4.08742 11.5101 4.17649 11.7278 4.17649 11.9951C4.17649 12.2722 4.08742 12.5097 3.90928 12.6977C3.73113 12.8858 3.5134 12.9847 3.25608 12.9847H0.979794C0.712577 12.9847 0.484948 12.8858 0.296907 12.6878C0.098969 12.4899 0 12.2623 0 11.9951ZM3.25608 4.21608C3.25608 3.93897 3.33526 3.71134 3.50351 3.54309C3.70144 3.34515 3.92907 3.24619 4.19629 3.24619C4.4833 3.24619 4.70103 3.34515 4.86928 3.54309L6.47258 5.15629C6.92784 5.59175 6.92784 6.03711 6.47258 6.49237C6.28454 6.68041 6.0767 6.76948 5.82928 6.76948C5.61155 6.76948 5.39381 6.68041 5.15629 6.49237L3.5134 4.88907C3.34515 4.71093 3.25608 4.4833 3.25608 4.21608ZM5.20577 17.3592C5.20577 17.1019 5.30474 16.8742 5.50268 16.6763C5.68082 16.4981 5.90845 16.4091 6.17567 16.4091H9.36247C9.47134 16.4091 9.56041 16.4289 9.63959 16.4882L11.9654 18.6854L14.3307 16.4783C14.4 16.4289 14.499 16.3992 14.6177 16.3992H17.8837C18.1509 16.3992 18.3786 16.4882 18.5666 16.6763C18.7546 16.8643 18.8536 17.092 18.8536 17.3493C18.8536 17.6165 18.7546 17.8441 18.5666 18.0322C18.3786 18.2202 18.1509 18.3192 17.8837 18.3192H15.2313L12.1237 21.1299C12.0049 21.219 11.8961 21.219 11.7971 21.1299L8.74887 18.3192H6.17567C5.90845 18.3192 5.68082 18.2202 5.49278 18.0322C5.30474 17.854 5.20577 17.6264 5.20577 17.3592ZM6.13608 11.9951C6.13608 12.9748 6.32412 13.8458 6.7101 14.588C6.76948 14.6969 6.85856 14.7464 6.97732 14.7464H8.82804C8.90722 14.7464 8.9567 14.7266 8.97649 14.6771C8.99629 14.6276 8.9666 14.5682 8.90722 14.499C8.3233 13.7666 8.02639 12.9254 8.02639 11.9951C8.02639 10.9064 8.41237 9.97608 9.19423 9.21402C9.97608 8.45196 10.9163 8.06598 12.0148 8.06598C13.1035 8.06598 14.0338 8.45196 14.8157 9.21402C15.5876 9.98598 15.9835 10.9064 15.9835 11.9852C15.9835 12.9155 15.6866 13.7567 15.1027 14.4891C15.0334 14.5583 15.0136 14.6177 15.0334 14.6672C15.0532 14.7167 15.1027 14.7365 15.1819 14.7365H17.0425C17.1711 14.7365 17.2503 14.687 17.28 14.5781C17.6858 13.8062 17.8936 12.9353 17.8936 11.9852C17.8936 11.2033 17.7353 10.4412 17.4285 9.71876C17.1217 8.99629 16.6961 8.36289 16.1715 7.83835C15.647 7.31381 15.0235 6.89814 14.301 6.58144C13.5786 6.26474 12.8165 6.11629 12.0247 6.11629C11.233 6.11629 10.4709 6.27464 9.74845 6.58144C9.02598 6.89814 8.40247 7.31381 7.87794 7.83835C7.3534 8.36289 6.93773 8.98639 6.62103 9.71876C6.30433 10.4511 6.13608 11.2132 6.13608 11.9951ZM11.0449 3.27588V0.969897C11.0449 0.70268 11.1439 0.475052 11.332 0.28701C11.52 0.0989693 11.7476 0 12.0148 0C12.2821 0 12.5097 0.0989693 12.6977 0.28701C12.8858 0.475052 12.9847 0.70268 12.9847 0.969897V3.26598C12.9847 3.5332 12.8858 3.76082 12.6977 3.94887C12.5097 4.13691 12.2821 4.23588 12.0148 4.23588C11.7476 4.23588 11.52 4.13691 11.332 3.94887C11.134 3.76082 11.0449 3.54309 11.0449 3.27588ZM17.2503 5.82928C17.2503 5.55216 17.3394 5.32454 17.5076 5.16619L19.1208 3.55299C19.2792 3.35505 19.5068 3.25608 19.7938 3.25608C20.061 3.25608 20.2887 3.35505 20.4668 3.54309C20.6449 3.73113 20.734 3.95876 20.734 4.22598C20.734 4.50309 20.6548 4.73072 20.4866 4.89897L18.8437 6.51216C18.6161 6.70021 18.3885 6.78928 18.1608 6.78928C17.9035 6.78928 17.6858 6.70021 17.5076 6.51216C17.3394 6.32412 17.2503 6.09649 17.2503 5.82928ZM19.8136 11.9951C19.8136 11.7278 19.9027 11.5101 20.0709 11.332C20.2392 11.1538 20.4668 11.0647 20.734 11.0647H23.0301C23.2973 11.0647 23.5249 11.1538 23.713 11.332C23.901 11.5101 24 11.7278 24 11.9951C24 12.2623 23.901 12.4899 23.713 12.6878C23.5249 12.8858 23.2973 12.9847 23.0301 12.9847H20.734C20.4767 12.9847 20.259 12.8858 20.0808 12.6977C19.9027 12.5097 19.8136 12.2722 19.8136 11.9951Z" fill="#2E2929"/>
</svg>
